<?xml version="1.0" encoding="UTF-8" standalone="no"?>
<!DOCTYPE svg PUBLIC "-//W3C//DTD SVG 1.1//EN" "http://www.w3.org/Graphics/SVG/1.1/DTD/svg11.dtd">
<svg width="100%" height="100%" viewBox="0 0 500 105" version="1.1" xmlns="http://www.w3.org/2000/svg" xmlns:xlink="http://www.w3.org/1999/xlink" xml:space="preserve" xmlns:serif="http://www.serif.com/" style="fill-rule:evenodd;clip-rule:evenodd;stroke-linejoin:round;stroke-miterlimit:2;">
    <g id="Artboard1" transform="matrix(0.998224,0,0,0.657299,0.355113,0.222138)">
        <rect x="-0.356" y="-0.338" width="500.889" height="158.662" style="fill:none;"/>
        <g transform="matrix(1.13517,0,0,1.72395,-50.7119,-91.6761)">
            <path d="M59.727,77.535C58.218,77.535 57.069,77.055 56.281,76.095C55.492,75.135 55.098,74.055 55.098,72.855C55.098,71.654 55.492,70.574 56.281,69.614C57.069,68.654 58.218,68.174 59.727,68.174C61.304,68.174 62.47,68.654 63.224,69.614C63.978,70.574 64.355,71.654 64.355,72.855C64.355,74.055 63.978,75.135 63.224,76.095C62.47,77.055 61.304,77.535 59.727,77.535ZM55.201,118.576L55.201,94.609C55.201,93.512 55.115,92.415 54.944,91.318C54.772,90.221 54.498,89.209 54.121,88.284C53.744,87.358 53.229,86.535 52.578,85.815C51.926,85.095 51.121,84.598 50.161,84.323C53.178,84.323 55.629,84.563 57.515,85.043C59.401,85.523 60.858,86.209 61.887,87.101C62.915,87.992 63.601,89.072 63.944,90.341C64.287,91.609 64.458,93.032 64.458,94.609L64.458,118.576C64.458,120.77 64.784,122.742 65.435,124.49C66.087,126.239 67.407,127.696 69.396,128.862L50.161,128.862C52.012,127.696 53.315,126.308 54.069,124.696C54.824,123.085 55.201,121.045 55.201,118.576Z" style="fill:rgb(245,134,52);fill-rule:nonzero;"/>
            <path d="M82.356,66.529C82.356,64.197 81.979,62.277 81.224,60.768C80.47,59.26 79.167,57.957 77.316,56.86L96.345,56.86C95.179,56.86 94.271,57.168 93.619,57.786C92.968,58.403 92.488,59.191 92.179,60.151C91.87,61.111 91.682,62.157 91.613,63.289C91.545,64.42 91.51,65.5 91.51,66.529L91.305,120.119C91.305,123.41 90.996,126.41 90.379,129.119C89.762,131.828 88.802,134.108 87.499,135.959C86.196,137.811 84.499,139.199 82.407,140.125C80.316,141.051 77.83,141.342 74.95,140.999C72.618,140.725 71.093,140.159 70.373,139.302C69.653,138.445 69.396,137.571 69.601,136.679C69.807,135.788 70.321,135.068 71.144,134.519C71.967,133.971 72.79,133.868 73.613,134.211C74.916,134.828 76.081,134.879 77.11,134.365C78.139,133.851 79.013,132.925 79.733,131.588C80.453,130.251 81.019,128.588 81.43,126.599C81.842,124.61 82.047,122.45 82.047,120.119L82.047,113.021C82.047,110.073 82.064,106.85 82.099,103.353C82.133,99.855 82.167,96.238 82.202,92.501C82.236,88.764 82.27,85.215 82.304,81.855C82.339,78.495 82.356,75.46 82.356,72.752L82.356,66.529Z" style="fill-rule:nonzero;"/>
            <path d="M135.123,121.353C132.86,123.616 130.34,125.365 127.563,126.599C124.786,127.833 121.957,128.553 119.077,128.759C115.168,129.102 111.774,128.673 108.894,127.473C106.014,126.273 103.631,124.593 101.745,122.433C99.859,120.273 98.471,117.77 97.579,114.924C96.688,112.079 96.276,109.164 96.345,106.181C96.413,103.198 96.945,100.284 97.939,97.438C98.934,94.592 100.391,92.107 102.311,89.981C104.231,87.855 106.597,86.209 109.408,85.043C112.22,83.878 115.477,83.501 119.18,83.912C122.197,84.186 124.82,85.043 127.049,86.484C129.277,87.924 131.026,89.621 132.295,91.575C133.563,93.529 134.249,95.604 134.352,97.798C134.455,99.992 133.872,102.015 132.603,103.867C131.335,105.718 129.312,107.244 126.534,108.444C123.757,109.644 120.071,110.244 115.477,110.244C113.077,110.244 110.334,110.038 107.248,109.627C107.591,111.684 108.157,113.639 108.945,115.49C109.734,117.342 110.78,118.953 112.083,120.325C113.385,121.696 114.911,122.793 116.66,123.616C118.408,124.439 120.38,124.85 122.574,124.85C124.357,124.85 126.294,124.576 128.386,124.027C130.477,123.479 132.723,122.587 135.123,121.353ZM106.837,105.513C109.442,105.993 111.945,106.233 114.345,106.233C118.803,106.233 122.111,105.478 124.271,103.97C126.431,102.461 127.614,100.747 127.82,98.827C128.026,96.907 127.374,95.089 125.866,93.375C124.357,91.661 122.129,90.564 119.18,90.084C117.123,89.741 115.323,89.964 113.78,90.752C112.237,91.541 110.951,92.655 109.922,94.095C108.894,95.535 108.122,97.25 107.608,99.238C107.094,101.227 106.837,103.318 106.837,105.513Z" style="fill-rule:nonzero;"/>
            <path d="M142.735,118.576C142.049,115.49 141.501,113.073 141.089,111.324C140.678,109.576 140.318,107.964 140.009,106.49C139.7,105.015 139.358,103.421 138.98,101.707C138.603,99.992 138.072,97.627 137.386,94.609C136.838,92.141 136.015,90.101 134.917,88.489C133.82,86.878 132.209,85.489 130.083,84.323C132.415,84.323 134.455,84.272 136.203,84.169C137.952,84.066 139.478,84.272 140.78,84.786C142.083,85.301 143.215,86.295 144.175,87.769C145.135,89.244 145.958,91.524 146.644,94.609L151.992,118.576C152.061,118.782 152.095,118.97 152.095,119.142C152.095,119.313 152.129,119.467 152.198,119.604C153.501,115.49 154.787,111.427 156.055,107.416C157.324,103.404 158.644,99.135 160.015,94.609L160.015,94.404C159.535,92.004 158.764,90.015 157.701,88.438C156.638,86.861 155.112,85.489 153.124,84.323L172.359,84.323C170.576,85.489 169.513,86.946 169.17,88.695C168.827,90.444 168.861,92.415 169.273,94.609L174.827,119.604C176.13,115.49 177.416,111.427 178.684,107.416C179.953,103.404 181.273,99.135 182.645,94.609C183.467,92.004 184.239,89.998 184.959,88.592C185.679,87.186 186.519,86.175 187.479,85.558C188.439,84.941 189.588,84.581 190.925,84.478C192.262,84.375 193.959,84.323 196.016,84.323C194.645,84.598 193.513,85.095 192.622,85.815C191.731,86.535 190.976,87.358 190.359,88.284C189.742,89.209 189.245,90.221 188.868,91.318C188.49,92.415 188.13,93.512 187.788,94.609C187.308,96.118 186.862,97.592 186.45,99.032C186.039,100.472 185.593,101.913 185.113,103.353L179.97,120.119C179.559,121.559 179.113,122.999 178.633,124.439C178.153,125.879 177.673,127.353 177.193,128.862L167.833,128.862C167.627,127.833 167.421,126.942 167.216,126.188C167.01,125.433 166.821,124.696 166.65,123.976C166.478,123.256 166.29,122.485 166.084,121.662C165.878,120.839 165.638,119.81 165.364,118.576C164.953,116.724 164.593,115.147 164.284,113.844C163.975,112.541 163.701,111.359 163.461,110.296C163.221,109.233 162.998,108.221 162.793,107.261C162.587,106.301 162.381,105.307 162.175,104.278L157.341,120.119C156.93,121.559 156.484,122.999 156.004,124.439C155.524,125.879 155.044,127.353 154.564,128.862L145.203,128.862C144.998,127.833 144.792,126.942 144.586,126.188C144.381,125.433 144.192,124.696 144.021,123.976C143.849,123.256 143.661,122.485 143.455,121.662C143.249,120.839 143.009,119.81 142.735,118.576Z" style="fill-rule:nonzero;"/>
            <path d="M228.417,121.353C226.154,123.616 223.634,125.365 220.857,126.599C218.08,127.833 215.251,128.553 212.371,128.759C208.463,129.102 205.068,128.673 202.188,127.473C199.308,126.273 196.925,124.593 195.039,122.433C193.153,120.273 191.765,117.77 190.873,114.924C189.982,112.079 189.571,109.164 189.639,106.181C189.708,103.198 190.239,100.284 191.233,97.438C192.228,94.592 193.685,92.107 195.605,89.981C197.525,87.855 199.891,86.209 202.702,85.043C205.514,83.878 208.771,83.501 212.474,83.912C215.491,84.186 218.114,85.043 220.343,86.484C222.571,87.924 224.32,89.621 225.589,91.575C226.857,93.529 227.543,95.604 227.646,97.798C227.749,99.992 227.166,102.015 225.897,103.867C224.629,105.718 222.606,107.244 219.829,108.444C217.051,109.644 213.366,110.244 208.771,110.244C206.371,110.244 203.628,110.038 200.542,109.627C200.885,111.684 201.451,113.639 202.239,115.49C203.028,117.342 204.074,118.953 205.377,120.325C206.68,121.696 208.205,122.793 209.954,123.616C211.703,124.439 213.674,124.85 215.868,124.85C217.651,124.85 219.589,124.576 221.68,124.027C223.772,123.479 226.017,122.587 228.417,121.353ZM200.131,105.513C202.737,105.993 205.24,106.233 207.64,106.233C212.097,106.233 215.406,105.478 217.566,103.97C219.726,102.461 220.909,100.747 221.114,98.827C221.32,96.907 220.669,95.089 219.16,93.375C217.651,91.661 215.423,90.564 212.474,90.084C210.417,89.741 208.617,89.964 207.074,90.752C205.531,91.541 204.245,92.655 203.217,94.095C202.188,95.535 201.417,97.25 200.902,99.238C200.388,101.227 200.131,103.318 200.131,105.513Z" style="fill-rule:nonzero;"/>
            <path d="M233.458,118.576L233.458,70.746C233.458,69.649 233.372,68.552 233.2,67.454C233.029,66.357 232.755,65.346 232.378,64.42C232,63.494 231.486,62.671 230.835,61.951C230.183,61.231 229.377,60.734 228.417,60.46C231.435,60.46 233.886,60.7 235.772,61.18C237.658,61.66 239.115,62.346 240.143,63.237C241.172,64.129 241.858,65.209 242.201,66.477C242.544,67.746 242.715,69.169 242.715,70.746L242.715,118.576C242.715,120.77 243.041,122.742 243.692,124.49C244.344,126.239 245.664,127.696 247.652,128.862L228.417,128.862C230.269,127.696 231.572,126.308 232.326,124.696C233.08,123.085 233.458,121.045 233.458,118.576Z" style="fill-rule:nonzero;"/>
            <path d="M280.568,128.862C278.373,123.307 276.179,117.753 273.984,112.199C271.79,106.644 269.596,101.09 267.401,95.535C266.99,94.507 266.236,92.501 265.138,89.518C264.041,86.535 262.841,82.986 261.538,78.872L261.538,119.296C261.538,121.627 261.967,123.547 262.824,125.056C263.681,126.565 265.138,127.833 267.196,128.862L250.327,128.862C252.521,127.833 253.978,126.496 254.698,124.85C255.418,123.205 255.778,121.353 255.778,119.296L255.778,66.323C255.092,64.06 254.15,62.174 252.95,60.666C251.75,59.157 249.984,57.888 247.652,56.86C250.875,56.86 253.447,56.877 255.367,56.911C257.287,56.945 258.847,57.237 260.047,57.786C261.247,58.334 262.258,59.26 263.081,60.563C263.904,61.866 264.83,63.786 265.858,66.323C266.133,66.94 266.544,67.986 267.093,69.46C267.641,70.934 268.293,72.632 269.047,74.552C269.801,76.472 270.59,78.495 271.413,80.62C272.236,82.746 273.042,84.786 273.83,86.741C274.619,88.695 275.304,90.461 275.887,92.038C276.47,93.615 276.933,94.781 277.276,95.535C278.305,98.072 279.247,100.438 280.105,102.633C280.962,104.827 281.802,106.953 282.625,109.01C283.448,111.067 284.253,113.159 285.042,115.284C285.831,117.41 286.671,119.673 287.562,122.073C288.591,119.536 289.739,116.673 291.008,113.484C292.276,110.296 293.596,106.97 294.968,103.507C296.339,100.044 297.728,96.547 299.134,93.015C300.54,89.484 301.877,86.106 303.145,82.883C304.414,79.66 305.58,76.695 306.643,73.986C307.705,71.277 308.58,68.997 309.265,67.146L309.265,66.323C309.265,64.883 309.403,63.58 309.677,62.414C309.951,61.248 310.603,60.254 311.631,59.431C312.66,58.608 314.151,57.974 316.106,57.528C318.06,57.083 320.717,56.86 324.077,56.86C321.952,57.408 320.494,58.626 319.706,60.511C318.917,62.397 318.523,64.334 318.523,66.323L318.523,119.296C318.523,121.627 318.934,123.547 319.757,125.056C320.58,126.565 322.02,127.833 324.077,128.862L303.814,128.862C306.008,127.833 307.465,126.496 308.185,124.85C308.905,123.205 309.265,121.353 309.265,119.296L309.265,82.163L309.368,83.501C307.723,87.546 305.991,91.832 304.174,96.358C302.357,100.884 300.608,105.238 298.928,109.421C297.248,113.604 295.722,117.41 294.351,120.839C292.979,124.267 291.916,126.942 291.162,128.862L280.568,128.862Z" style="fill-rule:nonzero;"/>
            <path d="M350.307,122.69C350.17,123.376 349.758,124.096 349.072,124.85C348.387,125.605 347.529,126.273 346.501,126.856C345.472,127.439 344.324,127.919 343.055,128.296C341.786,128.673 340.432,128.862 338.992,128.862C336.661,128.862 334.569,128.519 332.718,127.833C330.866,127.148 329.306,126.222 328.037,125.056C326.769,123.89 325.792,122.553 325.106,121.045C324.42,119.536 324.077,117.959 324.077,116.313C324.077,113.707 324.746,111.599 326.083,109.987C327.42,108.376 329.1,107.09 331.123,106.13C333.146,105.17 335.323,104.433 337.655,103.918C339.986,103.404 342.112,102.907 344.032,102.427C345.815,101.947 347.272,101.415 348.404,100.833C349.535,100.25 350.17,99.478 350.307,98.518C350.307,97.01 350.152,95.552 349.844,94.147C349.535,92.741 349.072,91.489 348.455,90.392C347.838,89.295 347.032,88.421 346.038,87.769C345.044,87.118 343.827,86.826 342.386,86.895C341.152,86.964 340.124,87.289 339.301,87.872C338.478,88.455 337.792,89.175 337.243,90.032C336.695,90.889 336.301,91.867 336.061,92.964C335.821,94.061 335.632,95.158 335.495,96.255C335.358,97.215 334.861,97.97 334.003,98.518C333.146,99.067 332.203,99.341 331.175,99.341C330.283,99.341 329.443,99.101 328.655,98.621C327.866,98.141 327.335,97.352 327.06,96.255C326.786,94.952 326.889,93.581 327.369,92.141C327.849,90.701 328.74,89.364 330.043,88.129C331.346,86.895 333.009,85.849 335.032,84.992C337.055,84.135 339.438,83.672 342.181,83.603C345.541,83.466 348.301,83.826 350.461,84.683C352.621,85.541 354.318,86.792 355.553,88.438C356.787,90.084 357.678,92.038 358.227,94.301C358.776,96.564 359.118,99.067 359.256,101.81C359.393,104.553 359.41,107.45 359.307,110.501C359.204,113.553 359.153,116.656 359.153,119.81C359.153,121.799 359.427,123.565 359.976,125.108C360.524,126.65 361.69,127.902 363.473,128.862C359.358,129.068 356.135,128.588 353.804,127.422C351.472,126.256 350.307,124.679 350.307,122.69ZM350.307,102.324C349.552,103.284 348.627,104.004 347.529,104.484C346.432,104.964 345.232,105.41 343.929,105.821C340.364,106.918 337.895,108.496 336.523,110.553C335.152,112.61 334.621,114.616 334.929,116.57C335.238,118.524 336.215,120.153 337.861,121.456C339.506,122.759 341.529,123.273 343.929,122.999C345.369,122.793 346.655,122.159 347.787,121.096C348.918,120.033 349.621,118.439 349.895,116.313C350.032,114.804 350.118,112.919 350.152,110.656C350.187,108.393 350.238,105.616 350.307,102.324Z" style="fill-rule:nonzero;"/>
            <path d="M372.73,69.717L372.73,84.118L379.108,84.118C380.068,84.186 380.788,84.323 381.268,84.529C381.748,84.735 382.073,85.112 382.245,85.661C382.416,86.209 382.502,86.964 382.502,87.924L382.502,91.832C381.885,90.872 381.37,90.084 380.959,89.466C380.548,88.849 380.085,88.369 379.57,88.026C379.056,87.684 378.439,87.426 377.719,87.255C376.999,87.084 376.022,86.998 374.787,86.998L372.73,86.998L372.73,111.684C372.936,116.759 373.725,120.239 375.096,122.125C376.467,124.01 377.942,124.85 379.519,124.645C381.096,124.439 382.588,123.496 383.993,121.816C385.399,120.136 386.205,118.233 386.411,116.107C386.548,115.147 387.028,114.461 387.851,114.05C388.674,113.639 389.531,113.501 390.422,113.639C391.314,113.776 392.102,114.17 392.788,114.821C393.474,115.473 393.714,116.382 393.508,117.547C393.097,119.879 392.068,121.936 390.422,123.719C388.776,125.502 386.856,126.822 384.662,127.679C382.468,128.536 380.136,128.896 377.668,128.759C375.199,128.622 372.919,127.833 370.827,126.393C368.736,124.953 367.004,122.776 365.633,119.862C364.261,116.947 363.541,113.193 363.473,108.598L363.473,86.998L358.433,86.998L358.433,84.118L363.473,84.118L363.473,70.952C363.473,69.854 363.387,68.757 363.216,67.66C363.044,66.563 362.77,65.551 362.393,64.626C362.016,63.7 361.501,62.877 360.85,62.157C360.198,61.437 359.393,60.94 358.433,60.666C361.244,60.666 363.559,60.871 365.376,61.283C367.193,61.694 368.633,62.294 369.696,63.083C370.759,63.871 371.513,64.831 371.959,65.963C372.405,67.094 372.662,68.346 372.73,69.717Z" style="fill-rule:nonzero;"/>
            <path d="M432.801,118.679C430.469,121.97 427.675,124.473 424.417,126.188C421.16,127.902 417.852,128.759 414.491,128.759C412.023,128.759 409.64,128.296 407.343,127.37C405.045,126.445 402.988,125.022 401.171,123.102C399.354,121.182 397.897,118.799 396.8,115.953C395.702,113.107 395.154,109.73 395.154,105.821C395.154,103.01 395.548,100.267 396.337,97.592C397.125,94.918 398.342,92.552 399.988,90.495C401.634,88.438 403.725,86.775 406.263,85.506C408.8,84.238 411.817,83.603 415.314,83.603C418.606,83.603 421.435,84.118 423.8,85.146C426.166,86.175 428.035,87.444 429.406,88.952C430.778,90.461 431.669,92.107 432.081,93.889C432.492,95.672 432.389,97.318 431.772,98.827C431.155,100.335 430.041,101.604 428.429,102.633C426.818,103.661 424.709,104.175 422.103,104.175C423.475,103.695 424.435,102.941 424.983,101.913C425.532,100.884 425.755,99.701 425.652,98.364C425.549,97.027 425.189,95.655 424.572,94.249C423.955,92.844 423.183,91.558 422.257,90.392C421.332,89.226 420.269,88.284 419.069,87.564C417.869,86.844 416.617,86.484 415.314,86.484C413.12,86.484 411.303,87.426 409.863,89.312C408.423,91.198 407.394,93.547 406.777,96.358C406.16,99.17 405.954,102.204 406.16,105.461C406.366,108.718 407,111.736 408.063,114.513C409.126,117.29 410.617,119.604 412.537,121.456C414.457,123.307 416.857,124.233 419.737,124.233C421.52,124.233 423.492,123.805 425.652,122.947C427.812,122.09 430.195,120.667 432.801,118.679Z" style="fill-rule:nonzero;"/>
            <path d="M436.606,118.576L436.606,70.643C436.606,69.546 436.521,68.449 436.349,67.352C436.178,66.254 435.904,65.243 435.526,64.317C435.149,63.391 434.635,62.569 433.983,61.848C433.332,61.128 432.526,60.631 431.566,60.357C434.584,60.357 437.035,60.597 438.921,61.077C440.807,61.557 442.264,62.243 443.292,63.134C444.321,64.026 445.007,65.106 445.35,66.374C445.692,67.643 445.864,69.066 445.864,70.643L445.864,86.998C448.813,85.695 451.984,85.043 455.378,85.043C458.773,85.043 461.91,85.695 464.79,86.998C467.67,88.301 470.07,90.289 471.99,92.964C473.91,95.638 474.87,98.998 474.87,103.044L474.87,118.679C474.87,119.776 474.939,120.873 475.076,121.97C475.213,123.067 475.47,124.079 475.848,125.005C476.225,125.93 476.739,126.736 477.39,127.422C478.042,128.108 478.848,128.622 479.808,128.965C476.79,128.965 474.356,128.708 472.505,128.193C470.653,127.679 469.213,126.976 468.185,126.085C467.156,125.193 466.453,124.096 466.076,122.793C465.699,121.49 465.51,120.085 465.51,118.576L465.51,114.461L465.613,106.233L465.613,102.118C465.613,100.747 465.562,99.238 465.459,97.592C465.356,95.947 465.013,94.404 464.43,92.964C463.847,91.524 462.904,90.324 461.601,89.364C460.299,88.404 458.447,87.924 456.047,87.924C454.196,87.924 452.653,88.352 451.418,89.209C450.184,90.066 449.19,91.147 448.435,92.449C447.681,93.752 447.098,95.192 446.687,96.77C446.275,98.347 446.001,99.89 445.864,101.398L445.864,118.576C445.864,120.77 446.19,122.742 446.841,124.49C447.492,126.239 448.813,127.696 450.801,128.862L431.566,128.862C433.418,127.696 434.721,126.308 435.475,124.696C436.229,123.085 436.606,121.045 436.606,118.576Z" style="fill-rule:nonzero;"/>
        </g>
    </g>
</svg>
